<svg width="200" height="31" viewBox="0 0 200 31" fill="none" xmlns="http://www.w3.org/2000/svg">
<path d="M3.68567 25C3.50234 25 3.36067 24.95 3.26067 24.85C3.16067 24.7333 3.11067 24.5917 3.11067 24.425V8.1C3.11067 7.91667 3.16067 7.775 3.26067 7.675C3.36067 7.55833 3.50234 7.5 3.68567 7.5H10.0357C11.269 7.5 12.3357 7.7 13.2357 8.1C14.1523 8.5 14.8607 9.1 15.3607 9.9C15.8607 10.6833 16.1107 11.6667 16.1107 12.85C16.1107 14.0333 15.8607 15.0167 15.3607 15.8C14.8607 16.5833 14.1523 17.175 13.2357 17.575C12.3357 17.975 11.269 18.175 10.0357 18.175H5.61067V24.425C5.61067 24.5917 5.55234 24.7333 5.43567 24.85C5.33567 24.95 5.194 25 5.01067 25H3.68567ZM5.58567 16.075H9.91067C11.144 16.075 12.069 15.8 12.6857 15.25C13.3023 14.7 13.6107 13.9 13.6107 12.85C13.6107 11.8167 13.3107 11.0167 12.7107 10.45C12.1107 9.88333 11.1773 9.6 9.91067 9.6H5.58567V16.075ZM25.4257 25.25C24.009 25.25 22.7924 25.0083 21.7757 24.525C20.759 24.025 19.9757 23.2667 19.4257 22.25C18.8757 21.2167 18.5674 19.925 18.5007 18.375C18.484 17.6417 18.4757 16.9417 18.4757 16.275C18.4757 15.5917 18.484 14.8833 18.5007 14.15C18.5674 12.6167 18.884 11.3417 19.4507 10.325C20.034 9.29167 20.834 8.525 21.8507 8.025C22.884 7.50833 24.0757 7.25 25.4257 7.25C26.7924 7.25 27.984 7.50833 29.0007 8.025C30.034 8.525 30.8424 9.29167 31.4257 10.325C32.009 11.3417 32.3257 12.6167 32.3757 14.15C32.409 14.8833 32.4257 15.5917 32.4257 16.275C32.4257 16.9417 32.409 17.6417 32.3757 18.375C32.3257 19.925 32.0174 21.2167 31.4507 22.25C30.9007 23.2667 30.1174 24.025 29.1007 24.525C28.084 25.0083 26.859 25.25 25.4257 25.25ZM25.4257 23.125C26.709 23.125 27.7507 22.7417 28.5507 21.975C29.3674 21.2083 29.809 19.9667 29.8757 18.25C29.909 17.5 29.9257 16.8333 29.9257 16.25C29.9257 15.65 29.909 14.9833 29.8757 14.25C29.8424 13.1 29.6257 12.1667 29.2257 11.45C28.8424 10.7333 28.3257 10.2083 27.6757 9.875C27.0257 9.54167 26.2757 9.375 25.4257 9.375C24.609 9.375 23.8757 9.54167 23.2257 9.875C22.5757 10.2083 22.0507 10.7333 21.6507 11.45C21.2674 12.1667 21.0507 13.1 21.0007 14.25C20.984 14.9833 20.9757 15.65 20.9757 16.25C20.9757 16.8333 20.984 17.5 21.0007 18.25C21.0674 19.9667 21.509 21.2083 22.3257 21.975C23.1424 22.7417 24.1757 23.125 25.4257 23.125ZM36.6447 25C36.4613 25 36.3197 24.95 36.2197 24.85C36.1197 24.7333 36.0697 24.5917 36.0697 24.425V8.1C36.0697 7.91667 36.1197 7.775 36.2197 7.675C36.3197 7.55833 36.4613 7.5 36.6447 7.5H42.7447C44.628 7.5 46.1197 7.94167 47.2197 8.825C48.3197 9.70833 48.8697 11.0167 48.8697 12.75C48.8697 14.0333 48.5447 15.0833 47.8947 15.9C47.2613 16.7 46.3947 17.2583 45.2947 17.575L49.1447 24.225C49.1947 24.325 49.2197 24.4167 49.2197 24.5C49.2197 24.6333 49.1613 24.75 49.0447 24.85C48.9447 24.95 48.828 25 48.6947 25H47.4947C47.2113 25 47.003 24.925 46.8697 24.775C46.7363 24.625 46.6197 24.475 46.5197 24.325L42.8947 17.975H38.5197V24.425C38.5197 24.5917 38.4613 24.7333 38.3447 24.85C38.2447 24.95 38.103 25 37.9197 25H36.6447ZM38.5197 15.85H42.6447C43.8947 15.85 44.828 15.5917 45.4447 15.075C46.0613 14.5417 46.3697 13.7583 46.3697 12.725C46.3697 11.7083 46.0613 10.9333 45.4447 10.4C44.8447 9.86667 43.9113 9.6 42.6447 9.6H38.5197V15.85ZM56.6562 25C56.4895 25 56.3478 24.95 56.2312 24.85C56.1312 24.7333 56.0812 24.5917 56.0812 24.425V9.725H51.2812C51.1145 9.725 50.9728 9.675 50.8562 9.575C50.7562 9.45833 50.7062 9.31667 50.7062 9.15V8.1C50.7062 7.91667 50.7562 7.775 50.8562 7.675C50.9728 7.55833 51.1145 7.5 51.2812 7.5H63.3312C63.5145 7.5 63.6562 7.55833 63.7562 7.675C63.8728 7.775 63.9312 7.91667 63.9312 8.1V9.15C63.9312 9.31667 63.8728 9.45833 63.7562 9.575C63.6562 9.675 63.5145 9.725 63.3312 9.725H58.5562V24.425C58.5562 24.5917 58.4978 24.7333 58.3812 24.85C58.2812 24.95 58.1395 25 57.9562 25H56.6562Z" fill="#96D0F4"/>
<path d="M63.7032 25C63.5699 25 63.4532 24.95 63.3532 24.85C63.2532 24.75 63.2032 24.6333 63.2032 24.5C63.2032 24.4167 63.2116 24.325 63.2282 24.225L69.4282 8.05C69.4949 7.88333 69.5866 7.75 69.7032 7.65C69.8199 7.55 69.9949 7.5 70.2282 7.5H71.9282C72.1449 7.5 72.3116 7.55 72.4282 7.65C72.5616 7.75 72.6616 7.88333 72.7282 8.05L78.9032 24.225C78.9366 24.325 78.9532 24.4167 78.9532 24.5C78.9532 24.6333 78.9032 24.75 78.8032 24.85C78.7032 24.95 78.5866 25 78.4532 25H77.1782C76.9782 25 76.8282 24.95 76.7282 24.85C76.6449 24.75 76.5866 24.6583 76.5532 24.575L75.1782 21.025H66.9782L65.6032 24.575C65.5866 24.6583 65.5282 24.75 65.4282 24.85C65.3282 24.95 65.1782 25 64.9782 25H63.7032ZM67.7032 18.875H74.4532L71.0782 10L67.7032 18.875ZM87.9089 25.25C86.5089 25.25 85.3006 25 84.2839 24.5C83.2839 24 82.5089 23.2417 81.9589 22.225C81.4256 21.1917 81.1589 19.8667 81.1589 18.25V8.1C81.1589 7.91667 81.2089 7.775 81.3089 7.675C81.4089 7.55833 81.5506 7.5 81.7339 7.5H83.0089C83.1922 7.5 83.3339 7.55833 83.4339 7.675C83.5506 7.775 83.6089 7.91667 83.6089 8.1V18.3C83.6089 19.9333 83.9922 21.1417 84.7589 21.925C85.5256 22.7083 86.5756 23.1 87.9089 23.1C89.2256 23.1 90.2672 22.7083 91.0339 21.925C91.8172 21.1417 92.2089 19.9333 92.2089 18.3V8.1C92.2089 7.91667 92.2589 7.775 92.3589 7.675C92.4756 7.55833 92.6172 7.5 92.7839 7.5H94.0839C94.2506 7.5 94.3839 7.55833 94.4839 7.675C94.6006 7.775 94.6589 7.91667 94.6589 8.1V18.25C94.6589 19.8667 94.3839 21.1917 93.8339 22.225C93.3006 23.2417 92.5339 24 91.5339 24.5C90.5339 25 89.3256 25.25 87.9089 25.25ZM103.238 25C103.072 25 102.93 24.95 102.813 24.85C102.713 24.7333 102.663 24.5917 102.663 24.425V9.725H97.8632C97.6965 9.725 97.5549 9.675 97.4382 9.575C97.3382 9.45833 97.2882 9.31667 97.2882 9.15V8.1C97.2882 7.91667 97.3382 7.775 97.4382 7.675C97.5549 7.55833 97.6965 7.5 97.8632 7.5H109.913C110.097 7.5 110.238 7.55833 110.338 7.675C110.455 7.775 110.513 7.91667 110.513 8.1V9.15C110.513 9.31667 110.455 9.45833 110.338 9.575C110.238 9.675 110.097 9.725 109.913 9.725H105.138V24.425C105.138 24.5917 105.08 24.7333 104.963 24.85C104.863 24.95 104.722 25 104.538 25H103.238ZM113.891 25C113.707 25 113.566 24.95 113.466 24.85C113.366 24.7333 113.316 24.5917 113.316 24.425V8.1C113.316 7.91667 113.366 7.775 113.466 7.675C113.566 7.55833 113.707 7.5 113.891 7.5H115.166C115.349 7.5 115.491 7.55833 115.591 7.675C115.707 7.775 115.766 7.91667 115.766 8.1V15H124.366V8.1C124.366 7.91667 124.416 7.775 124.516 7.675C124.632 7.55833 124.774 7.5 124.941 7.5H126.216C126.399 7.5 126.541 7.55833 126.641 7.675C126.757 7.775 126.816 7.91667 126.816 8.1V24.425C126.816 24.5917 126.757 24.7333 126.641 24.85C126.541 24.95 126.399 25 126.216 25H124.941C124.774 25 124.632 24.95 124.516 24.85C124.416 24.7333 124.366 24.5917 124.366 24.425V17.25H115.766V24.425C115.766 24.5917 115.707 24.7333 115.591 24.85C115.491 24.95 115.349 25 115.166 25H113.891ZM137.413 25.25C135.996 25.25 134.78 25.0083 133.763 24.525C132.746 24.025 131.963 23.2667 131.413 22.25C130.863 21.2167 130.555 19.925 130.488 18.375C130.471 17.6417 130.463 16.9417 130.463 16.275C130.463 15.5917 130.471 14.8833 130.488 14.15C130.555 12.6167 130.871 11.3417 131.438 10.325C132.021 9.29167 132.821 8.525 133.838 8.025C134.871 7.50833 136.063 7.25 137.413 7.25C138.78 7.25 139.971 7.50833 140.988 8.025C142.021 8.525 142.83 9.29167 143.413 10.325C143.996 11.3417 144.313 12.6167 144.363 14.15C144.396 14.8833 144.413 15.5917 144.413 16.275C144.413 16.9417 144.396 17.6417 144.363 18.375C144.313 19.925 144.005 21.2167 143.438 22.25C142.888 23.2667 142.105 24.025 141.088 24.525C140.071 25.0083 138.846 25.25 137.413 25.25ZM137.413 23.125C138.696 23.125 139.738 22.7417 140.538 21.975C141.355 21.2083 141.796 19.9667 141.863 18.25C141.896 17.5 141.913 16.8333 141.913 16.25C141.913 15.65 141.896 14.9833 141.863 14.25C141.83 13.1 141.613 12.1667 141.213 11.45C140.83 10.7333 140.313 10.2083 139.663 9.875C139.013 9.54167 138.263 9.375 137.413 9.375C136.596 9.375 135.863 9.54167 135.213 9.875C134.563 10.2083 134.038 10.7333 133.638 11.45C133.255 12.1667 133.038 13.1 132.988 14.25C132.971 14.9833 132.963 15.65 132.963 16.25C132.963 16.8333 132.971 17.5 132.988 18.25C133.055 19.9667 133.496 21.2083 134.313 21.975C135.13 22.7417 136.163 23.125 137.413 23.125ZM148.632 25C148.449 25 148.307 24.95 148.207 24.85C148.107 24.7333 148.057 24.5917 148.057 24.425V8.1C148.057 7.91667 148.107 7.775 148.207 7.675C148.307 7.55833 148.449 7.5 148.632 7.5H154.732C156.615 7.5 158.107 7.94167 159.207 8.825C160.307 9.70833 160.857 11.0167 160.857 12.75C160.857 14.0333 160.532 15.0833 159.882 15.9C159.249 16.7 158.382 17.2583 157.282 17.575L161.132 24.225C161.182 24.325 161.207 24.4167 161.207 24.5C161.207 24.6333 161.149 24.75 161.032 24.85C160.932 24.95 160.815 25 160.682 25H159.482C159.199 25 158.99 24.925 158.857 24.775C158.724 24.625 158.607 24.475 158.507 24.325L154.882 17.975H150.507V24.425C150.507 24.5917 150.449 24.7333 150.332 24.85C150.232 24.95 150.09 25 149.907 25H148.632ZM150.507 15.85H154.632C155.882 15.85 156.815 15.5917 157.432 15.075C158.049 14.5417 158.357 13.7583 158.357 12.725C158.357 11.7083 158.049 10.9333 157.432 10.4C156.832 9.86667 155.899 9.6 154.632 9.6H150.507V15.85ZM165.014 25C164.83 25 164.689 24.95 164.589 24.85C164.489 24.7333 164.439 24.5917 164.439 24.425V8.075C164.439 7.90833 164.489 7.775 164.589 7.675C164.689 7.55833 164.83 7.5 165.014 7.5H166.339C166.505 7.5 166.639 7.55833 166.739 7.675C166.855 7.775 166.914 7.90833 166.914 8.075V24.425C166.914 24.5917 166.855 24.7333 166.739 24.85C166.639 24.95 166.505 25 166.339 25H165.014ZM175.675 25C175.508 25 175.366 24.95 175.25 24.85C175.15 24.7333 175.1 24.5917 175.1 24.425V9.725H170.3C170.133 9.725 169.991 9.675 169.875 9.575C169.775 9.45833 169.725 9.31667 169.725 9.15V8.1C169.725 7.91667 169.775 7.775 169.875 7.675C169.991 7.55833 170.133 7.5 170.3 7.5H182.35C182.533 7.5 182.675 7.55833 182.775 7.675C182.891 7.775 182.95 7.91667 182.95 8.1V9.15C182.95 9.31667 182.891 9.45833 182.775 9.575C182.675 9.675 182.533 9.725 182.35 9.725H177.575V24.425C177.575 24.5917 177.516 24.7333 177.4 24.85C177.3 24.95 177.158 25 176.975 25H175.675ZM191.002 25C190.836 25 190.694 24.95 190.577 24.85C190.477 24.7333 190.427 24.5917 190.427 24.425V18.525L184.402 8.325C184.386 8.275 184.369 8.225 184.352 8.175C184.336 8.125 184.327 8.06667 184.327 8C184.327 7.86667 184.377 7.75 184.477 7.65C184.577 7.55 184.694 7.5 184.827 7.5H186.127C186.277 7.5 186.411 7.54167 186.527 7.625C186.644 7.69167 186.727 7.79167 186.777 7.925L191.652 16.025L196.527 7.925C196.611 7.79167 196.702 7.69167 196.802 7.625C196.919 7.54167 197.052 7.5 197.202 7.5H198.477C198.627 7.5 198.752 7.55 198.852 7.65C198.952 7.75 199.002 7.86667 199.002 8C199.002 8.06667 198.994 8.125 198.977 8.175C198.961 8.225 198.936 8.275 198.902 8.325L192.902 18.525V24.425C192.902 24.5917 192.844 24.7333 192.727 24.85C192.627 24.95 192.486 25 192.302 25H191.002Z" fill="#DDD8D8"/>
<line x1="3.18146" y1="0.5" x2="199.058" y2="0.499983" stroke="#DDD8D8"/>
</svg>
